<?xml version="1.0" encoding="utf-8"?>
<!-- Generator: Adobe Illustrator 24.3.0, SVG Export Plug-In . SVG Version: 6.00 Build 0)  -->
<svg version="1.1" id="Layer_1" xmlns="http://www.w3.org/2000/svg" xmlns:xlink="http://www.w3.org/1999/xlink" x="0px" y="0px"
	 viewBox="0 0 247 288" style="enable-background:new 0 0 247 288;" xml:space="preserve">
<style type="text/css">
	.st0{fill:url(#SVGID_1_);}
	.st1{fill:#C02026;}
	.st2{fill:#FFFFFF;}
	.st3{fill:url(#SVGID_2_);}
	.st4{fill:none;stroke:url(#SVGID_3_);stroke-width:3;stroke-linecap:round;stroke-miterlimit:10;}
	.st5{fill:none;stroke:url(#SVGID_4_);stroke-width:3;stroke-linecap:round;stroke-miterlimit:10;}
	.st6{fill:#AF2429;}
</style>
<linearGradient id="SVGID_1_" gradientUnits="userSpaceOnUse" x1="500.8787" y1="162.0267" x2="635.4498" y2="109.9925">
	<stop  offset="0.3225" style="stop-color:#F04E25"/>
	<stop  offset="0.6885" style="stop-color:#F7941D"/>
</linearGradient>
<rect x="526.4" y="109.7" class="st0" width="80.7" height="53.7"/>
<rect x="353.3" y="136.5" class="st1" width="63.7" height="52.8"/>
<g>
	<rect class="st2" width="247" height="288"/>
	<linearGradient id="SVGID_2_" gradientUnits="userSpaceOnUse" x1="75.4348" y1="113.3524" x2="165.3936" y2="94.1808">
		<stop  offset="0.4477" style="stop-color:#F04E25"/>
		<stop  offset="0.6544" style="stop-color:#F7941D"/>
	</linearGradient>
	<polygon class="st3" points="113.5,87.6 157.7,96.4 117.9,122 81.3,111.8 	"/>
	<linearGradient id="SVGID_3_" gradientUnits="userSpaceOnUse" x1="78.6052" y1="120.0383" x2="160.2415" y2="120.0383">
		<stop  offset="0.3225" style="stop-color:#F04E25"/>
		<stop  offset="0.6885" style="stop-color:#F7941D"/>
	</linearGradient>
	<path class="st4" d="M85.3,110.7c0,0-5.7,3.1-5.1,7.9c0,0,0.4,4.3,4.4,5.8l34.2,8.1l39.9-25.2"/>
	<linearGradient id="SVGID_4_" gradientUnits="userSpaceOnUse" x1="78.6694" y1="131.4763" x2="160.3998" y2="131.4763">
		<stop  offset="0.3225" style="stop-color:#F04E25"/>
		<stop  offset="0.6885" style="stop-color:#F7941D"/>
	</linearGradient>
	<path class="st5" d="M82.7,124.1c0,0-5.6,5.8,0,11l36.3,9.1l39.9-25.5"/>
	<g>
		<g>
			<g>
				<path class="st6" d="M58.4,185.9h-1.2v-3.1H54v3.1h-1.2v-7.2H54v3.2h3.2v-3.2h1.2V185.9z"/>
				<path class="st6" d="M63.7,184.2h-2.5l-0.6,1.7h-1.2l2.5-7.2H63l2.5,7.2h-1.2L63.7,184.2z M61.5,183.2h1.9l-0.9-2.8h0
					L61.5,183.2z"/>
				<path class="st6" d="M70.2,184c0-0.3-0.1-0.5-0.3-0.7c-0.2-0.2-0.6-0.4-1.1-0.5c-0.8-0.2-1.4-0.5-1.8-0.8
					c-0.4-0.3-0.6-0.8-0.6-1.4c0-0.6,0.2-1.1,0.7-1.4c0.5-0.4,1.1-0.6,1.8-0.6c0.8,0,1.4,0.2,1.9,0.6c0.5,0.4,0.7,0.9,0.7,1.5l0,0
					h-1.2c0-0.4-0.1-0.7-0.4-0.9c-0.3-0.2-0.6-0.3-1-0.3c-0.4,0-0.7,0.1-0.9,0.3c-0.2,0.2-0.3,0.4-0.3,0.7c0,0.3,0.1,0.5,0.4,0.7
					c0.2,0.2,0.6,0.3,1.2,0.5c0.8,0.2,1.3,0.5,1.7,0.9s0.6,0.8,0.6,1.4c0,0.6-0.2,1.1-0.7,1.4c-0.5,0.4-1.1,0.5-1.8,0.5
					c-0.7,0-1.4-0.2-1.9-0.6c-0.5-0.4-0.8-0.9-0.8-1.6l0,0h1.2c0,0.4,0.1,0.8,0.4,1s0.7,0.3,1.1,0.3c0.4,0,0.8-0.1,1-0.3
					C70.1,184.6,70.2,184.3,70.2,184z"/>
				<path class="st6" d="M76.4,184c0-0.3-0.1-0.5-0.3-0.7c-0.2-0.2-0.6-0.4-1.1-0.5c-0.8-0.2-1.4-0.5-1.8-0.8
					c-0.4-0.3-0.6-0.8-0.6-1.4c0-0.6,0.2-1.1,0.7-1.4c0.5-0.4,1.1-0.6,1.8-0.6c0.8,0,1.4,0.2,1.9,0.6c0.5,0.4,0.7,0.9,0.7,1.5l0,0
					h-1.2c0-0.4-0.1-0.7-0.4-0.9c-0.3-0.2-0.6-0.3-1-0.3c-0.4,0-0.7,0.1-0.9,0.3c-0.2,0.2-0.3,0.4-0.3,0.7c0,0.3,0.1,0.5,0.4,0.7
					c0.2,0.2,0.6,0.3,1.2,0.5c0.8,0.2,1.3,0.5,1.7,0.9s0.6,0.8,0.6,1.4c0,0.6-0.2,1.1-0.7,1.4c-0.5,0.4-1.1,0.5-1.8,0.5
					c-0.7,0-1.4-0.2-1.9-0.6c-0.5-0.4-0.8-0.9-0.8-1.6l0,0h1.2c0,0.4,0.1,0.8,0.4,1s0.7,0.3,1.1,0.3c0.4,0,0.8-0.1,1-0.3
					C76.3,184.6,76.4,184.3,76.4,184z"/>
				<path class="st6" d="M80,184.9h3.4v1h-4.6v-7.2H80V184.9z"/>
				<path class="st6" d="M88.4,182.6h-2.8v2.3h3.3v1h-4.5v-7.2h4.5v1h-3.3v2h2.8V182.6z"/>
				<path class="st6" d="M96.6,182.8h-2.9v3.1h-1.2v-7.2h4.6v1h-3.4v2.2h2.9V182.8z"/>
				<path class="st6" d="M99.3,182.9v3h-1.2v-7.2h2.5c0.8,0,1.4,0.2,1.9,0.5c0.4,0.4,0.7,0.9,0.7,1.5c0,0.4-0.1,0.7-0.3,1
					c-0.2,0.3-0.5,0.5-0.8,0.6c0.4,0.1,0.7,0.3,0.9,0.6c0.2,0.3,0.3,0.6,0.3,1.1v0.6c0,0.2,0,0.4,0.1,0.6c0.1,0.2,0.1,0.4,0.3,0.5
					v0.1h-1.2c-0.1-0.1-0.2-0.3-0.3-0.5c0-0.2-0.1-0.5-0.1-0.7v-0.6c0-0.4-0.1-0.7-0.3-0.9s-0.5-0.3-0.9-0.3H99.3z M99.3,181.9h1.2
					c0.5,0,0.8-0.1,1.1-0.3s0.3-0.5,0.3-0.8c0-0.4-0.1-0.6-0.3-0.9c-0.2-0.2-0.5-0.3-1-0.3h-1.3V181.9z"/>
				<path class="st6" d="M108.6,182.6h-2.8v2.3h3.3v1h-4.5v-7.2h4.5v1h-3.3v2h2.8V182.6z"/>
				<path class="st6" d="M114.1,182.6h-2.8v2.3h3.3v1h-4.5v-7.2h4.5v1h-3.3v2h2.8V182.6z"/>
				<path class="st6" d="M122,184.2h-2.5l-0.6,1.7h-1.2l2.5-7.2h1.1l2.5,7.2h-1.2L122,184.2z M119.8,183.2h1.9l-0.9-2.8h0
					L119.8,183.2z"/>
				<path class="st6" d="M129.9,183.5L129.9,183.5c0,0.8-0.2,1.3-0.7,1.8c-0.5,0.4-1.1,0.7-2,0.7c-0.8,0-1.5-0.3-2-0.8
					c-0.5-0.6-0.8-1.3-0.8-2.2v-1.4c0-0.9,0.3-1.6,0.8-2.2c0.5-0.6,1.2-0.9,2-0.9c0.8,0,1.5,0.2,2,0.6c0.5,0.4,0.7,1,0.7,1.8l0,0
					h-1.2c0-0.5-0.1-0.8-0.4-1.1c-0.3-0.3-0.6-0.4-1.1-0.4c-0.5,0-0.9,0.2-1.2,0.6s-0.4,0.9-0.4,1.5v1.4c0,0.6,0.1,1.1,0.4,1.5
					c0.3,0.4,0.7,0.6,1.2,0.6c0.5,0,0.9-0.1,1.1-0.4c0.3-0.3,0.4-0.6,0.4-1.1H129.9z"/>
				<path class="st6" d="M136.3,183.5L136.3,183.5c0,0.8-0.2,1.3-0.7,1.8c-0.5,0.4-1.1,0.7-2,0.7c-0.8,0-1.5-0.3-2-0.8
					c-0.5-0.6-0.8-1.3-0.8-2.2v-1.4c0-0.9,0.3-1.6,0.8-2.2c0.5-0.6,1.2-0.9,2-0.9c0.8,0,1.5,0.2,2,0.6c0.5,0.4,0.7,1,0.7,1.8l0,0
					h-1.2c0-0.5-0.1-0.8-0.4-1.1c-0.3-0.3-0.6-0.4-1.1-0.4c-0.5,0-0.9,0.2-1.2,0.6s-0.4,0.9-0.4,1.5v1.4c0,0.6,0.1,1.1,0.4,1.5
					c0.3,0.4,0.7,0.6,1.2,0.6c0.5,0,0.9-0.1,1.1-0.4c0.3-0.3,0.4-0.6,0.4-1.1H136.3z"/>
				<path class="st6" d="M143.1,182.9c0,0.9-0.3,1.6-0.8,2.2s-1.3,0.9-2.1,0.9c-0.9,0-1.6-0.3-2.1-0.9c-0.5-0.6-0.8-1.3-0.8-2.2
					v-1.3c0-0.9,0.3-1.6,0.8-2.2s1.2-0.9,2.1-0.9c0.9,0,1.6,0.3,2.1,0.9s0.8,1.3,0.8,2.2V182.9z M141.9,181.6c0-0.6-0.2-1.1-0.5-1.5
					c-0.3-0.4-0.8-0.6-1.3-0.6c-0.5,0-0.9,0.2-1.3,0.6s-0.5,0.9-0.5,1.5v1.3c0,0.6,0.2,1.1,0.5,1.5c0.3,0.4,0.7,0.6,1.2,0.6
					c0.5,0,1-0.2,1.3-0.6s0.5-0.9,0.5-1.5V181.6z"/>
				<path class="st6" d="M149.8,178.7v4.7c0,0.8-0.3,1.4-0.8,1.9c-0.5,0.5-1.2,0.7-2,0.7c-0.8,0-1.5-0.2-2-0.7
					c-0.5-0.5-0.8-1.1-0.8-1.9v-4.7h1.2v4.7c0,0.5,0.1,0.9,0.4,1.2c0.3,0.3,0.7,0.4,1.1,0.4c0.5,0,0.9-0.1,1.2-0.4
					c0.3-0.3,0.4-0.7,0.4-1.2v-4.7H149.8z"/>
				<path class="st6" d="M156.9,185.9h-1.2l-3.2-5.2l0,0v5.2h-1.2v-7.2h1.2l3.2,5.2l0,0v-5.2h1.2V185.9z"/>
				<path class="st6" d="M163.2,179.6H161v6.2h-1.2v-6.2h-2.2v-1h5.6V179.6z"/>
				<path class="st6" d="M165.5,185.9h-1.2v-7.2h1.2V185.9z"/>
				<path class="st6" d="M172.7,185.9h-1.2l-3.2-5.2l0,0v5.2h-1.2v-7.2h1.2l3.2,5.2l0,0v-5.2h1.2V185.9z"/>
				<path class="st6" d="M179.5,184.9c-0.2,0.3-0.5,0.5-0.9,0.7s-1,0.3-1.7,0.3c-0.8,0-1.5-0.3-2.1-0.8s-0.8-1.3-0.8-2.1v-1.5
					c0-0.9,0.3-1.6,0.8-2.1c0.5-0.5,1.2-0.8,2-0.8c0.8,0,1.5,0.2,2,0.6c0.5,0.4,0.7,1,0.7,1.6l0,0h-1.1c0-0.4-0.1-0.7-0.4-1
					c-0.3-0.2-0.6-0.4-1.1-0.4c-0.5,0-0.9,0.2-1.2,0.6c-0.3,0.4-0.5,0.8-0.5,1.4v1.5c0,0.6,0.2,1.1,0.5,1.4c0.3,0.4,0.7,0.6,1.2,0.6
					c0.4,0,0.7,0,0.9-0.1c0.2-0.1,0.4-0.2,0.5-0.3v-1.5h-1.5v-0.9h2.7V184.9z"/>
			</g>
		</g>
		<g>
			<path class="st6" d="M55.1,165.3v6.9h-2.8v-16.5H58c1.8,0,3.3,0.4,4.3,1.2c1,0.8,1.5,2,1.5,3.6c0,0.9-0.2,1.6-0.7,2.2
				c-0.4,0.6-1.1,1.1-1.9,1.5c0.9,0.3,1.6,0.8,2,1.4c0.4,0.7,0.6,1.5,0.6,2.5v1.4c0,0.5,0.1,1,0.2,1.4s0.3,0.8,0.6,1.1v0.3h-2.8
				c-0.3-0.2-0.5-0.6-0.6-1.2s-0.1-1.1-0.1-1.6v-1.3c0-0.8-0.2-1.5-0.7-2s-1.2-0.8-2-0.8H55.1z M55.1,163.1h2.8
				c1.1,0,1.9-0.2,2.4-0.6c0.5-0.4,0.8-1.1,0.8-1.9c0-0.8-0.3-1.5-0.8-2s-1.3-0.7-2.3-0.7h-2.9V163.1z"/>
			<path class="st6" d="M70.1,172.2h-2.8v-16.5h2.8V172.2z"/>
			<path class="st6" d="M85.1,157.9h-5.1v14.3h-2.8v-14.3h-5v-2.2h12.9V157.9z"/>
			<path class="st6" d="M96.4,164.8h-6.5v5.2h7.6v2.2H87.2v-16.5h10.3v2.2h-7.6v4.7h6.5V164.8z"/>
			<path class="st6" d="M105.9,172.2v-16.5h5.4c1.8,0,3.3,0.4,4.3,1.1s1.5,1.9,1.5,3.4c0,0.7-0.2,1.4-0.6,2c-0.4,0.6-1,1-1.7,1.3
				c1.1,0.2,1.9,0.6,2.5,1.4c0.6,0.7,0.9,1.6,0.9,2.6c0,1.6-0.5,2.7-1.5,3.5c-1,0.8-2.4,1.2-4.2,1.2H105.9z M108.6,162.6h3
				c0.9,0,1.5-0.2,2-0.6c0.5-0.4,0.7-1,0.7-1.7c0-0.8-0.3-1.4-0.8-1.8c-0.5-0.4-1.3-0.6-2.3-0.6h-2.7V162.6z M108.6,164.7v5.3h3.7
				c1,0,1.7-0.2,2.2-0.7c0.5-0.4,0.8-1.1,0.8-1.9c0-0.8-0.3-1.5-0.8-2c-0.5-0.5-1.2-0.8-2.1-0.8h-0.1H108.6z"/>
			<path class="st6" d="M133.7,165.4c0,2-0.6,3.7-1.9,5c-1.3,1.3-2.9,2-5,2c-2,0-3.6-0.7-4.8-2c-1.2-1.3-1.9-3-1.9-5v-3
				c0-2,0.6-3.7,1.9-5s2.9-2,4.8-2c2,0,3.7,0.7,4.9,2c1.3,1.3,1.9,3,1.9,5V165.4z M130.9,162.4c0-1.4-0.4-2.5-1.1-3.4
				c-0.7-0.9-1.7-1.3-3-1.3c-1.2,0-2.2,0.4-2.9,1.3c-0.7,0.9-1.1,2-1.1,3.4v3c0,1.4,0.4,2.5,1.1,3.4c0.7,0.9,1.7,1.3,2.9,1.3
				c1.3,0,2.3-0.4,3-1.3c0.7-0.9,1.1-2,1.1-3.4V162.4z"/>
			<path class="st6" d="M149.6,165.4c0,2-0.6,3.7-1.9,5c-1.3,1.3-2.9,2-5,2c-2,0-3.6-0.7-4.8-2c-1.2-1.3-1.9-3-1.9-5v-3
				c0-2,0.6-3.7,1.9-5s2.9-2,4.8-2c2,0,3.7,0.7,4.9,2c1.3,1.3,1.9,3,1.9,5V165.4z M146.8,162.4c0-1.4-0.4-2.5-1.1-3.4
				c-0.7-0.9-1.7-1.3-3-1.3c-1.2,0-2.2,0.4-2.9,1.3c-0.7,0.9-1.1,2-1.1,3.4v3c0,1.4,0.4,2.5,1.1,3.4c0.7,0.9,1.7,1.3,2.9,1.3
				c1.3,0,2.3-0.4,3-1.3c0.7-0.9,1.1-2,1.1-3.4V162.4z"/>
			<path class="st6" d="M156.7,165.1h-1.4v7.2h-2.8v-16.5h2.8v7h1.1l5.4-7h3.2l0,0.1l-6.2,7.8l6.7,8.7h-3.5L156.7,165.1z"/>
			<path class="st6" d="M176.1,168c0-0.7-0.2-1.3-0.7-1.7c-0.5-0.4-1.4-0.8-2.6-1.2c-1.8-0.5-3.2-1.1-4.1-1.9
				c-1-0.8-1.4-1.8-1.4-3.1c0-1.3,0.5-2.4,1.6-3.3c1.1-0.9,2.4-1.3,4.1-1.3c1.8,0,3.2,0.5,4.3,1.4s1.6,2.1,1.6,3.6l0,0.1H176
				c0-0.9-0.3-1.6-0.9-2.1s-1.4-0.8-2.3-0.8c-0.9,0-1.7,0.2-2.2,0.7s-0.8,1-0.8,1.7c0,0.6,0.3,1.2,0.8,1.6c0.6,0.4,1.5,0.8,2.8,1.2
				c1.7,0.5,3.1,1.1,4,2s1.4,1.9,1.4,3.2c0,1.4-0.5,2.5-1.6,3.3s-2.5,1.2-4.2,1.2c-1.7,0-3.1-0.4-4.4-1.3c-1.3-0.9-1.9-2.2-1.8-3.8
				l0-0.1h2.7c0,1,0.3,1.7,1,2.2c0.7,0.5,1.5,0.8,2.5,0.8c1,0,1.7-0.2,2.3-0.6C175.8,169.2,176.1,168.7,176.1,168z"/>
		</g>
	</g>
</g>
</svg>
